<?xml version="1.0" encoding="UTF-8"?>
<svg id="Ebene_1" xmlns="http://www.w3.org/2000/svg" version="1.1" viewBox="0 0 283.5 90.7">
  <!-- Generator: Adobe Illustrator 29.8.2, SVG Export Plug-In . SVG Version: 2.1.1 Build 3)  -->
  <defs>
    <style>
      .st0 {
        fill: #fad200;
      }

      .st1 {
        fill: #e30613;
      }

      .st2 {
        fill: #252525;
      }
    </style>
  </defs>
  <rect class="st1" y="85" width="141.7" height="5.7"/>
  <rect class="st0" x="141.7" y="85" width="141.7" height="5.7"/>
  <g>
    <path class="st2" d="M23.6,42.7c0-9.1,5.4-15.1,14.5-15.1s13.2,6.1,13.2,16.3v1.5h-17.1c.3,2.8,2.8,4.3,7.1,4.3s6.2-.8,9.3-2.5v8.5c-4,1.5-8,2.2-11.6,2.2-9.7,0-15.4-5.8-15.4-15.2ZM34.1,39.6h7.2c0-3.4-1.2-5-3.5-5s-3.5,1.7-3.7,5Z"/>
    <path class="st2" d="M55.1,47.5v-19.1h10.3v16.9c0,2.2,1.4,3.6,3.3,3.6s2.8-.7,3.6-2v-18.5h10.3v28.7h-9.7l-.5-3.7c-1.8,2.8-4.6,4.4-7.8,4.4-5.8,0-9.5-3.9-9.5-10.3Z"/>
    <path class="st2" d="M87.6,28.4h10.3v4.4c1.6-3.6,3.9-5,6.4-5s1.9.1,2.8.4v10.2c-1.5-.7-2.8-1-4.5-1s-3.5.6-4.7,1.5v18.2h-10.3v-28.7Z"/>
    <path class="st2" d="M108.9,42.7c0-9.2,6-15.1,15.3-15.1s15.3,5.9,15.3,15-6,15.4-15.3,15.4-15.3-6.1-15.3-15.3ZM128.9,42.7c0-3.9-1.9-6.2-4.7-6.2s-4.7,2.3-4.7,6.2,1.9,6.2,4.7,6.2,4.7-2.3,4.7-6.2Z"/>
    <path class="st2" d="M143.9,68.2v-9c2.9,1.9,6.2,2.9,9.3,2.9s7.1-1.1,7.1-5.7v-1.9c-1.6,2.1-4.1,3.1-6.7,3.1-7.4,0-11.6-5.5-11.6-14.5s6.1-15.6,14.2-15.6,6.5,1.5,8.2,3.8l2-3.1h4.3v27.2c0,10.1-6.7,14.8-14.8,14.8-4.4.2-8.4-.5-12-2ZM160.2,47.8v-10.6c-.9-.4-2-.6-3-.6-3.1,0-4.9,2.8-4.9,6.3s1.6,6.1,4.4,6.1,2.6-.4,3.5-1.2Z"/>
    <path class="st2" d="M174.4,49.5c0-5.8,3.9-8.5,11.3-9.8l5-.8v-.7c0-1.8-1.8-2.8-5.4-2.8s-6.5,1-9.4,2.6v-8.4c3.6-1.2,7.4-2.1,11.6-2.1,8.5,0,13.4,3.8,13.4,10.2v19.5h-9.6l-.6-3.6c-1.6,2.7-4.2,4.2-7.6,4.2-5.1,0-8.7-3.5-8.7-8.3ZM190.7,48.2v-3.9l-3.1.5c-1.8.3-2.9,1.3-2.9,3s1.1,2.4,2.7,2.4,2.8-.7,3.3-2Z"/>
    <path class="st2" d="M205.3,56.3v-8.3c3,1.5,6.4,2.4,9.5,2.4s2.7-.5,2.7-1.6-.6-1.3-2.4-1.9l-1.9-.5c-6-1.8-8.5-4.7-8.5-9.4s3.8-9.4,11.7-9.4,7,.5,10.3,1.4v8c-2.8-1.4-5.8-2.1-8.7-2.1s-2.5.5-2.5,1.5.5,1.4,2.2,1.9l1.9.5c6.1,1.7,8.7,4.8,8.7,9.3s-4.1,9.8-12.4,9.8-7.2-.6-10.6-1.6Z"/>
    <path class="st2" d="M233.6,48.9v-11.8h-3.5v-8.7h3.5v-7.9h10.3v25.3c0,1.8,1,2.8,2.5,2.8s1.8-.3,2.7-.8v8.7c-2.2.9-4.7,1.3-7,1.3-5.3,0-8.5-3.4-8.5-8.9Z"/>
    <path class="st1" d="M245.6,28.4h8.1l-3,8.7h-5v-8.7h-.1Z"/>
    <path class="st0" d="M254.9,28.4h5l-3,8.7h-5l3-8.7Z"/>
  </g>
</svg>