<?xml version="1.0" encoding="utf-8"?>
<!-- Generator: Adobe Illustrator 27.8.1, SVG Export Plug-In . SVG Version: 6.00 Build 0)  -->
<svg version="1.1" id="Layer_1" xmlns="http://www.w3.org/2000/svg" xmlns:xlink="http://www.w3.org/1999/xlink" x="0px" y="0px"
	 viewBox="0 0 994.7 190.4" style="enable-background:new 0 0 994.7 190.4;" xml:space="preserve">
<style type="text/css">
	.st0{fill:url(#SVGID_1_);}
	.st1{fill:#FFFFFF;stroke:#000000;stroke-miterlimit:10;}
	.st2{fill:url(#SVGID_00000158002852905335636140000011725139632484301998_);}
	.st3{fill:url(#SVGID_00000120527448456314532470000013885306677832972679_);}
	.st4{fill:url(#SVGID_00000180361258068431073560000017364370967599147697_);}
	.st5{fill:url(#SVGID_00000181807357569966723190000001273255375910000061_);}
	.st6{fill:url(#SVGID_00000110430986022430596380000001065931760966666917_);}
	.st7{fill:url(#SVGID_00000041260211636142114040000014082301596934566573_);}
	.st8{fill:url(#SVGID_00000130619386039960670040000000036078741312728475_);}
</style>
<linearGradient id="SVGID_1_" gradientUnits="userSpaceOnUse" x1="7.6259" y1="119.7665" x2="263.0247" y2="50.9091">
	<stop  offset="0" style="stop-color:#001F8F"/>
	<stop  offset="0.8947" style="stop-color:#005BA0"/>
</linearGradient>
<path class="st0" d="M3.5,29.3c0,0-3.2-5.2,2.4-6.8s32.7,0,32.7,0s3.2,0,5.9,3c2.7,3,87.1,124.4,87.1,124.4s2.8,4.1,6.2,0l85-122
	c0,0,2.6-5.6,11-5.1l28.1-0.1c0,0,8.5-0.4,3.7,6.5l-100,141.1c0,0-5.4,7.8-22.6,9.9h-17.3c0,0-10.5,0.1-21.4-9.2L3.5,29.3z"/>
<path class="st1" d="M124.9,180.3"/>
<linearGradient id="SVGID_00000098911816759653513930000013026265287363097482_" gradientUnits="userSpaceOnUse" x1="405.6543" y1="156.1846" x2="447.1131" y2="90.8109">
	<stop  offset="0" style="stop-color:#004F9D"/>
	<stop  offset="1" style="stop-color:#0083AB"/>
</linearGradient>
<path style="fill:url(#SVGID_00000098911816759653513930000013026265287363097482_);" d="M406.6,170.1v-68.8c0-0.1,0-0.2,0-0.4
	c-0.2-2.7-4.2-40,40.1-51.3c0.3-0.1,3.4-0.6,3.8-0.6h29.5c1.4,0,2.7,0.7,3.4,1.9c0.5,0.8,0.8,1.8,1,3.3c0.4,4.9,0,20.2,0,20.2
	s0.4,2.6-1.6,4.1c-0.6,0.4-1.4,0.6-2.2,0.6l-19.2,0c-0.1,0-0.3,0-0.4,0c-2,0.2-16.6,2.4-20.1,16.6c-0.1,0.3-0.1,0.6-0.1,1
	c0,6.2-0.3,68.5-0.3,73.1c0,0.2,0,0.3,0,0.5c0.1,0.9,0.3,4.2-2,5.9c-0.6,0.5-1.4,0.7-2.2,0.7l-24.9,0c-1.1,0-2.1-0.4-2.8-1.2
	C407.5,174.7,406.6,173,406.6,170.1z"/>
<linearGradient id="SVGID_00000023997284164059635860000003523780558932149430_" gradientUnits="userSpaceOnUse" x1="505.0652" y1="133.2319" x2="622.6364" y2="90.6357">
	<stop  offset="0" style="stop-color:#0066A3"/>
	<stop  offset="1" style="stop-color:#009AB1"/>
</linearGradient>
<path style="fill:url(#SVGID_00000023997284164059635860000003523780558932149430_);" d="M498.7,147.6v19.9c0,2,1.1,3.9,3,4.8
	c1.6,0.8,4.2,1.7,8.2,2.7c12.4,3,38.1,5,38.1,5s39.8,0.2,54.8-7.7c15-7.9,19-24.7,19-24.7s4.7-12.9-3.5-28.2
	c-8.2-15.4-29.8-17.1-29.8-17.1s-38.9-6.2-46.5-7.9c-7.6-1.7-10.1-6.8-10.1-6.8s-1.1-2.3,0.1-5.3s7-5.2,10.6-5.3
	c3.6-0.1,43.1,0,62.1,4.4c0,0,4.2,1.3,7.2,0.3c1.3-0.4,2.2-1.7,2.2-3.1V57.7c0-0.2,0-0.5-0.1-0.7c-0.3-1-1.5-3.7-6.6-4.6
	c-6.2-1.1-47.4-10.3-83.1-0.7c-2.2,0.6-4.2,1.4-6.4,2.5c-6.6,3.3-19.3,13-19.6,27.4c0,0-3,26.2,14.5,34.7
	c17.5,8.5,61.7,13.1,61.7,13.1s10.3,1.7,14.3,6.6c3.9,4.9-2.3,9.9-2.3,9.9s-4.9,6.8-40.7,5.6c-27.9-0.9-37-4.9-39.6-6.6
	c-1.3-0.8-2.9-1.1-4.3-0.7C500.3,144.6,499,145.5,498.7,147.6z"/>
<linearGradient id="SVGID_00000092439279529114713090000002426800377520656807_" gradientUnits="userSpaceOnUse" x1="644.6568" y1="132.4848" x2="775.7232" y2="81.0431">
	<stop  offset="6.055298e-03" style="stop-color:#0089AC"/>
	<stop  offset="1" style="stop-color:#00B3B8"/>
</linearGradient>
<path style="fill:url(#SVGID_00000092439279529114713090000002426800377520656807_);" d="M638.6,55c0,0,0.6-4.1,5.1-4.5s24,0,24,0
	s5,0.7,5,4.5v72c0,4.4,1,8.7,3.2,12.5c2.7,4.7,7.5,9.8,16.3,11.2c11.9,1.9,23.6,1.2,30,0.6c5-0.5,9.7-2.4,13.4-5.7
	c1.9-1.7,3.9-3.9,5.6-6.8c2.3-3.8,3.4-8.3,3.4-12.7l0-71.4c0,0-0.3-3.4,5.3-4.3h24.4c0,0,4.1-0.3,4.8,4.7v76c0,0,1.4,38-45.2,47.9
	c-36.1,7.6-64.1-4.6-74.9-10.5c-4-2.2-7.5-5.2-10.2-8.8c-4.2-5.7-9.4-15.4-10-29C637.6,107.6,638.6,55,638.6,55z"/>
<linearGradient id="SVGID_00000112591682698860157290000004522193131184781977_" gradientUnits="userSpaceOnUse" x1="809.3881" y1="142.8898" x2="940.0022" y2="92.3204">
	<stop  offset="6.055298e-03" style="stop-color:#00A2B3"/>
	<stop  offset="1" style="stop-color:#00BBBA"/>
</linearGradient>
<path style="fill:url(#SVGID_00000112591682698860157290000004522193131184781977_);" d="M797.6,171.6l0.7-78.7
	c0-4.2,0.8-8.3,2.5-12.1c4-9.6,14-25.7,36.8-30.4c26-5.3,49.8-2.3,58.7-0.7c2.8,0.5,5.6,1.3,8.2,2.3c8.7,3.5,27.4,13,32,30.9l0,0.2
	c0.7,2.9,1.1,5.8,1.1,8.8v81.1c0,0,0.4,2.2-1.7,3.4c-0.7,0.4-1.4,0.5-2.2,0.5l-23.9,0c-0.5,0-1-0.1-1.5-0.2c-0.5-0.2-1.2-0.5-1.8-1
	c-1.1-0.9-1.6-2.2-1.6-3.6v-70.8c0-3.9-1.5-9.8-3.4-13.2c-3.1-5.6-7.6-11.6-14.9-12.2c-11.3-0.9-31.3-0.2-32.4,0.1
	c-1,0.2-19.3,2.8-21.4,21.1c0,0.2,0,0.4,0,0.5l-0.7,74.6c0,0.4-0.1,0.8-0.2,1.2c-0.3,1-1,2.8-2.8,3.5c-2.6,1.1-27,0-27,0
	S797.5,176.7,797.6,171.6z"/>
<linearGradient id="SVGID_00000138550730885431911640000013639341125396147126_" gradientUnits="userSpaceOnUse" x1="952.1973" y1="148.5997" x2="979.4519" y2="85.6688">
	<stop  offset="0" style="stop-color:#00B6B9"/>
	<stop  offset="1" style="stop-color:#00BBBA"/>
</linearGradient>
<path style="fill:url(#SVGID_00000138550730885431911640000013639341125396147126_);" d="M959.1,175.4c-0.3-0.9-0.4-1.8-0.4-2.7
	V54.4c0,0-0.4-1.5,2.2-3c1.4-0.8,2.9-1.1,4.5-1.1h22.7c0,0,4.4-0.6,4.6,4.6v76.7c0,2.4-0.5,4.8-1.7,6.9c-0.1,0.2-0.2,0.4-0.4,0.6
	l-24.4,34.6C966.3,173.8,961.1,181,959.1,175.4z"/>
<linearGradient id="SVGID_00000099633122070449391850000017087476536288250301_" gradientUnits="userSpaceOnUse" x1="957.5764" y1="17.4919" x2="993.8975" y2="17.4919">
	<stop  offset="0" style="stop-color:#00B6B9"/>
	<stop  offset="1" style="stop-color:#00BBBA"/>
</linearGradient>
<path style="fill:url(#SVGID_00000099633122070449391850000017087476536288250301_);" d="M981.9,33.5h-12.3c-6.6,0-12-5.4-12-12
	v-8.1c0-6.6,5.4-12,12-12h12.3c6.6,0,12,5.4,12,12v8.1C993.9,28.1,988.5,33.5,981.9,33.5z"/>
<linearGradient id="SVGID_00000124161408630619188970000008146554963621918886_" gradientUnits="userSpaceOnUse" x1="247.7105" y1="131.6894" x2="389.8138" y2="99.0885">
	<stop  offset="0" style="stop-color:#003997"/>
	<stop  offset="0.8028" style="stop-color:#0065A3"/>
</linearGradient>
<path style="fill:url(#SVGID_00000124161408630619188970000008146554963621918886_);" d="M354.5,53.1c-35.2-13.5-67.9-1.1-71.4,0.3
	c-0.2,0.1-9.2,4.4-9.4,4.5c-2.9,1.6-28.3,16-29.9,46.5c-1.7,32.4,4.5,49.6,26.5,63.6c21,13.4,67.2,12.5,71.4,12.4c0.2,0,0.4,0,0.6,0
	c2.9-0.4,25.5-3.6,35.7-9.6c1.8-1.1,2.9-3,2.8-5.1l-0.1-14.7c0-2.6-1.9-4.9-4.4-5.3c0,0,0,0,0,0c-0.8-0.1-1.7-0.1-2.5,0.2
	c-2.5,0.8-10.1,2.9-28.1,4.8c-23.2,2.5-42.9-1.8-42.9-1.8s-14.2-2.7-21.7-15.3c-2.3-3.9,0.5-8.8,5-8.8h96.5c2.4,0,4.6-1.4,5.4-3.7
	c0.4-1,0.7-2.2,1-3.8C390.1,110.3,391.2,67.2,354.5,53.1z M278.9,101.1c2.3-18.7,25.2-23.8,25.2-23.8c17.5-3.6,27.1,0.3,27.1,0.3
	c23.8,6,24.1,23.6,24.1,23.6H278.9z"/>
</svg>
